<svg width="36" height="37" viewBox="0 0 36 37" fill="none" xmlns="http://www.w3.org/2000/svg">
<path d="M30.7045 32.9468C31.1439 33.3861 31.8562 33.3861 32.2955 32.9468C32.7348 32.5074 32.7348 31.7951 32.2955 31.3558L30.7045 32.9468ZM25.2072 27.4495L30.7045 32.9468L32.2955 31.3558L26.7982 25.8585L25.2072 27.4495Z" fill="white"/>
<path d="M4.97359 13.1374C5.84796 9.40982 8.75846 6.49932 12.486 5.62496C15.178 4.9935 17.9796 4.9935 20.6716 5.62496C24.3991 6.49932 27.3096 9.40982 28.184 13.1374C28.8154 15.8294 28.8154 18.631 28.184 21.3229C27.3096 25.0505 24.3991 27.961 20.6716 28.8354C17.9796 29.4668 15.178 29.4668 12.486 28.8354C8.75846 27.961 5.84796 25.0505 4.97359 21.3229C4.34214 18.631 4.34214 15.8294 4.97359 13.1374Z" stroke="white" stroke-width="2.25" stroke-linecap="round"/>
<path d="M4.97359 13.1374C4.34214 15.8294 4.34214 18.631 4.97359 21.3229C5.84796 25.0505 8.75846 27.961 12.486 28.8354C15.178 29.4668 17.9796 29.4668 20.6716 28.8354C24.3991 27.961 27.3096 25.0505 28.184 21.3229C28.8154 18.631 28.8154 15.8294 28.184 13.1374C27.3096 9.40982 24.3991 6.49932 20.6716 5.62496C17.9796 4.9935 15.178 4.9935 12.486 5.62496" stroke="white" stroke-width="2.25" stroke-linecap="round"/>
</svg>
