<svg width="50" height="51" viewBox="0 0 50 51" fill="none" xmlns="http://www.w3.org/2000/svg">
<path d="M33.0737 41.2501L33.4498 40.99C34.6269 40.1761 35.2156 39.769 35.7421 39.3327C38.603 36.9615 40.5245 33.6564 41.1641 30.0067C41.2818 29.335 41.3429 28.6244 41.4653 27.2033L41.5285 26.4685C41.731 24.1163 41.7108 21.7503 41.4682 19.4019L41.3932 18.6751C40.9686 14.5653 38.4456 10.9633 34.7175 9.14434C28.5878 6.15371 21.4122 6.15371 15.2825 9.14434C11.5543 10.9633 9.03131 14.5653 8.60679 18.6751L8.53172 19.4019C8.28914 21.7503 8.26895 24.1163 8.47143 26.4685L8.53468 27.2033C8.65701 28.6244 8.71817 29.335 8.83587 30.0067C9.47542 33.6564 11.397 36.9615 14.2579 39.3327C14.7844 39.769 15.3731 40.1761 16.5501 40.99L16.9263 41.2501C18.5265 42.3567 19.3267 42.91 20.1286 43.2945C23.2068 44.7703 26.7931 44.7703 29.8713 43.2945C30.6733 42.91 31.4734 42.3567 33.0737 41.2501Z" stroke="#ED9902" stroke-width="3.125"/>
<path d="M41.4653 27.2033L41.5285 26.4685C41.731 24.1163 41.7108 21.7503 41.4682 19.4019L41.3932 18.6751C40.9686 14.5653 38.4456 10.9633 34.7175 9.14434C28.5878 6.15371 21.4122 6.15371 15.2825 9.14434C11.5543 10.9633 9.03131 14.5653 8.60679 18.6751L8.53172 19.4019C8.28914 21.7503 8.26895 24.1163 8.47143 26.4685L8.53468 27.2033C8.65701 28.6244 8.71817 29.335 8.83587 30.0067C9.47542 33.6564 11.397 36.9615 14.2579 39.3327C14.7844 39.769 15.3731 40.1761 16.5501 40.99L16.9263 41.2501C18.5265 42.3567 19.3267 42.91 20.1286 43.2945" stroke="white" stroke-width="3.125" stroke-linecap="round"/>
<path d="M19.2708 25.1306L23.4375 29.2972L30.7291 21.4847" stroke="#ED9902" stroke-width="3.125" stroke-linecap="round" stroke-linejoin="round"/>
</svg>
